<svg viewBox="0 0 628 628" fill="none" xmlns="http://www.w3.org/2000/svg">
<g id="Favicon - Dark Mode">
<rect width="628" height="628" rx="25" fill="#24283A"/>
<g id="Letters">
<g id="Letter C">
<g id="Group 1">
<rect id="Rectangle 1" x="105" y="134" width="119.226" height="93.8879" rx="20" fill="#C0C1C8"/>
<rect id="Rectangle 6" x="114.049" y="145.312" width="100.901" height="71.2643" rx="20" fill="#D5D6DB"/>
</g>
<g id="Group 3">
<rect id="Rectangle 3" x="105" y="241.629" width="119.226" height="93.8879" rx="20" fill="#C0C1C8"/>
<rect id="Rectangle 7" x="114.049" y="252.941" width="100.901" height="71.2643" rx="20" fill="#D5D6DB"/>
</g>
<g id="Group 4">
<rect id="Rectangle 4" x="105" y="349.259" width="119.226" height="93.8879" rx="20" fill="#C0C1C8"/>
<rect id="Rectangle 8" x="114.049" y="360.57" width="100.901" height="71.2643" rx="20" fill="#D5D6DB"/>
</g>
<g id="Group 5">
<rect id="Rectangle 5" x="237.873" y="349.259" width="119.226" height="93.8879" rx="20" fill="#C0C1C8"/>
<rect id="Rectangle 9" x="246.922" y="360.57" width="100.901" height="71.2643" rx="20" fill="#D5D6DB"/>
</g>
<g id="Group 2">
<rect id="Rectangle 2" x="237.873" y="134" width="119.226" height="93.8879" rx="20" fill="#C0C1C8"/>
<rect id="Rectangle 10" x="246.922" y="145.312" width="100.901" height="71.2643" rx="20" fill="#D5D6DB"/>
</g>
</g>
<g id="Letter O">
<g id="Group 7">
<path id="Rectangle 21" d="M394.592 318.051C394.586 307.006 403.535 298.046 414.581 298.04L433.607 298.03C444.652 298.024 453.612 306.973 453.618 318.019L453.626 332.977C453.632 344.023 444.683 352.982 433.637 352.988L414.611 352.998C403.566 353.004 394.606 344.055 394.6 333.009L394.592 318.051Z" fill="#AD8EE5"/>
<path id="Rectangle 12" d="M401.605 323.926C401.599 312.88 410.549 303.921 421.594 303.915L426.842 303.912C437.887 303.906 446.847 312.855 446.853 323.901L446.855 327.338C446.861 338.384 437.911 347.343 426.866 347.349L421.618 347.352C410.573 347.358 401.613 338.409 401.607 327.363L401.605 323.926Z" fill="#BB9AF7"/>
</g>
<g id="Group 8">
<path id="Rectangle 22" d="M463.821 318.051C463.814 307.006 472.764 298.046 483.81 298.04L502.835 298.03C513.881 298.024 522.84 306.973 522.846 318.019L522.854 332.977C522.861 344.023 513.911 352.982 502.866 352.988L483.84 352.998C472.794 353.004 463.835 344.055 463.829 333.009L463.821 318.051Z" fill="#E56E84"/>
<rect id="Rectangle 13" x="471.275" y="304.152" width="45.2472" height="43.4373" rx="20" transform="rotate(-0.0315435 471.275 304.152)" fill="#F7768E"/>
</g>
<g id="Group 9">
<path id="Rectangle 23" d="M463.821 388.637C463.814 377.591 472.764 368.632 483.81 368.626L502.835 368.615C513.881 368.609 522.84 377.559 522.846 388.604L522.854 403.562C522.861 414.608 513.911 423.567 502.866 423.574L483.84 423.584C472.794 423.59 463.835 414.641 463.829 403.595L463.821 388.637Z" fill="#BB384E"/>
<rect id="Rectangle 14" x="471.275" y="374.511" width="45.2472" height="43.4373" rx="20" transform="rotate(-0.0315435 471.275 374.511)" fill="#C53B53"/>
</g>
<g id="Group 10">
<path id="Rectangle 24" d="M463.821 459.222C463.814 448.177 472.764 439.217 483.81 439.211L502.835 439.201C513.881 439.195 522.84 448.144 522.846 459.19L522.854 474.148C522.861 485.194 513.911 494.153 502.866 494.159L483.84 494.17C472.794 494.176 463.835 485.226 463.829 474.181L463.821 459.222Z" fill="#EF945D"/>
<path id="Rectangle 15" d="M470.834 465.097C470.828 454.051 479.777 445.092 490.823 445.086L496.07 445.083C507.116 445.077 516.075 454.026 516.081 465.072L516.083 468.509C516.089 479.555 507.14 488.514 496.094 488.52L490.847 488.523C479.801 488.529 470.842 479.58 470.836 468.534L470.834 465.097Z" fill="#FF9E64"/>
</g>
<g id="Group 11">
<path id="Rectangle 25" d="M394.592 459.222C394.586 448.177 403.535 439.217 414.581 439.211L433.607 439.201C444.652 439.195 453.612 448.144 453.618 459.19L453.626 474.148C453.632 485.194 444.683 494.153 433.637 494.159L414.611 494.17C403.566 494.176 394.606 485.226 394.6 474.181L394.592 459.222Z" fill="#F2BD70"/>
<rect id="Rectangle 16" x="401.594" y="445.097" width="45.2472" height="43.4373" rx="20" transform="rotate(-0.0315435 401.594 445.097)" fill="#FFC777"/>
</g>
<g id="Group 12">
<path id="Rectangle 26" d="M323.102 459.222C323.096 448.177 332.045 439.217 343.091 439.211L362.116 439.201C373.162 439.195 382.121 448.144 382.128 459.19L382.136 474.148C382.142 485.194 373.192 494.153 362.147 494.159L343.121 494.17C332.075 494.176 323.116 485.226 323.11 474.181L323.102 459.222Z" fill="#B9DC86"/>
<rect id="Rectangle 17" x="330.783" y="445.323" width="45.2472" height="43.4373" rx="20" transform="rotate(-0.0315435 330.783 445.323)" fill="#C3E88D"/>
</g>
<g id="Group 13">
<path id="Rectangle 27" d="M323.102 388.863C323.096 377.817 332.045 368.858 343.091 368.852L362.116 368.842C373.162 368.835 382.121 377.785 382.128 388.831L382.136 403.789C382.142 414.834 373.192 423.794 362.147 423.8L343.121 423.81C332.075 423.816 323.116 414.867 323.11 403.821L323.102 388.863Z" fill="#74C2F0"/>
<rect id="Rectangle 18" x="329.878" y="374.738" width="45.2472" height="43.4373" rx="20" transform="rotate(-0.0315435 329.878 374.738)" fill="#7DCFFF"/>
</g>
<g id="Group 6">
<path id="Rectangle 20" d="M323.102 318.051C323.096 307.006 332.045 298.046 343.091 298.04L362.116 298.03C373.162 298.024 382.121 306.973 382.128 318.019L382.136 332.977C382.142 344.023 373.192 352.982 362.147 352.988L343.121 352.998C332.075 353.004 323.116 344.055 323.11 333.009L323.102 318.051Z" fill="#B2BCE5"/>
<path id="Rectangle 19" d="M329.889 323.926C329.883 312.88 338.832 303.921 349.878 303.915L355.125 303.912C366.171 303.906 375.13 312.855 375.136 323.901L375.138 327.338C375.144 338.384 366.195 347.343 355.149 347.349L349.902 347.352C338.856 347.358 329.897 338.409 329.891 327.363L329.889 323.926Z" fill="#C0CAF5"/>
</g>
</g>
</g>
</g>
</svg>
